<svg width="479" height="418" viewBox="0 0 479 418" fill="none" xmlns="http://www.w3.org/2000/svg">
<g clip-path="url(#clip0)">
<path opacity="0.2" d="M433.643 150.31H405.997V164.651H433.643V150.31Z" fill="#61DCFB"/>
<path opacity="0.2" d="M435.77 167.837H408.123V182.178H435.77V167.837Z" fill="#61DCFB"/>
<path opacity="0.2" d="M412.908 46.2084H385.262V60.5489H412.908V46.2084Z" fill="#61DCFB"/>
<path opacity="0.2" d="M432.58 62.6734H404.933V77.014H432.58V62.6734Z" fill="#61DCFB"/>
<path opacity="0.2" d="M379.413 47.2706H351.767V61.6112H379.413V47.2706Z" fill="#61DCFB"/>
<path opacity="0.2" d="M468.202 79.1385H440.555V93.479H468.202V79.1385Z" fill="#61DCFB"/>
<path opacity="0.2" d="M434.707 80.2008H407.06V94.5413H434.707V80.2008Z" fill="#61DCFB"/>
<path opacity="0.2" d="M399.085 63.7357H371.438V78.0762H399.085V63.7357Z" fill="#61DCFB"/>
<path opacity="0.2" d="M466.607 189.614H438.96V203.954H466.607V189.614Z" fill="#61DCFB"/>
<path opacity="0.2" d="M433.112 190.676H405.465V205.017H433.112V190.676Z" fill="#61DCFB"/>
<path d="M69.5155 146.592C69.5155 146.592 108.481 185.519 86.4863 243.258C64.4912 300.997 124.187 397.095 124.187 397.095C124.187 397.095 123.549 396.999 122.363 396.792C42.3367 382.68 2.57329 291.246 47.0951 223.341C63.6193 198.064 77.1981 168.443 69.5155 146.592Z" fill="#61DCFB"/>
<path d="M69.5155 146.592C69.5155 146.592 91.5105 194.309 69.5155 233.23C47.5204 272.151 65.7459 381.416 124.192 397.095" stroke="#535461" stroke-width="2" stroke-miterlimit="10"/>
<path d="M0.111694 304.03C0.111694 304.03 44.575 296.955 48.6263 336.764C52.6776 376.572 134.129 382.09 134.129 382.09C134.129 382.09 133.597 382.451 132.603 383.105C65.3525 427.189 1.06869 411.196 10.761 352.639C14.3604 330.868 14.0626 309.001 0.111694 304.03Z" fill="#61DCFB"/>
<path d="M0.111694 304.03C0.111694 304.03 34.6222 311.599 31.7884 342.946C28.9546 374.293 83.0411 411.892 134.129 382.09" stroke="#535461" stroke-width="2" stroke-miterlimit="10"/>
<path opacity="0.2" d="M27.9816 150.841H0.334961V165.182H27.9816V150.841Z" fill="#61DCFB"/>
<path opacity="0.2" d="M47.6533 167.306H20.0067V181.647H47.6533V167.306Z" fill="#61DCFB"/>
<path opacity="0.2" d="M197.052 0H169.405V14.3405H197.052V0Z" fill="#61DCFB"/>
<path opacity="0.2" d="M415.035 264.503H387.388V278.844H415.035V264.503Z" fill="#61DCFB"/>
<path opacity="0.2" d="M49.78 184.834H22.1333V199.174H49.78V184.834Z" fill="#61DCFB"/>
<path opacity="0.2" d="M216.723 16.4651H189.077V30.8056H216.723V16.4651Z" fill="#61DCFB"/>
<path opacity="0.2" d="M115.707 113.662H88.06V128.003H115.707V113.662Z" fill="#61DCFB"/>
<path opacity="0.2" d="M135.378 130.127H107.732V144.468H135.378V130.127Z" fill="#61DCFB"/>
<path opacity="0.2" d="M188.013 121.098H160.367V135.438H188.013V121.098Z" fill="#61DCFB"/>
<path opacity="0.2" d="M137.505 147.654H109.858V161.995H137.505V147.654Z" fill="#61DCFB"/>
<path opacity="0.2" d="M452.252 264.503H424.605V278.844H452.252V264.503Z" fill="#61DCFB"/>
<path d="M383.146 207.731C381.356 197.778 380.258 187.714 379.86 177.61C379.507 169.289 376.585 161.281 371.497 154.684C366.408 148.086 359.401 143.223 351.437 140.76C348.534 139.868 345.339 139.034 341.809 138.285C310.866 131.72 301.466 137.451 300.397 138.206C299.492 136.562 298.705 134.856 298.042 133.101C297.989 132.921 297.941 132.74 297.888 132.57C304.012 126.046 307.743 117.642 308.473 108.728C313.636 103.501 316.65 97.1916 316.65 90.3985C316.65 84.556 314.417 79.0748 310.509 74.3318V65.1007C310.509 54.4556 306.276 44.2464 298.742 36.7192C291.207 29.1919 280.987 24.9632 270.331 24.9632H267.072C261.796 24.9632 256.571 26.0013 251.697 28.0184C246.822 30.0355 242.393 32.9921 238.662 36.7192C234.931 40.4463 231.972 44.871 229.953 49.7407C227.933 54.6104 226.894 59.8298 226.894 65.1007V75.0488C223.348 79.6218 221.338 84.8428 221.338 90.3878C221.338 97.0376 224.231 103.22 229.196 108.383C229.875 117.623 233.777 126.333 240.223 132.995C240.441 134.504 240.664 136.124 240.882 137.834L185.536 149.513C185.536 149.513 164.195 150.39 150.446 178.726C138.818 202.727 115.68 264.392 108.827 282.747C107.588 286.072 106.886 287.979 106.886 287.979C106.886 287.979 107.115 287.751 107.546 287.358L106.886 289.148C106.886 289.148 107.221 288.808 107.859 288.25C106.892 295.93 106.753 309.118 116.823 310.759C125.266 312.135 147.022 312.703 163.456 312.932H164.593C175.487 313.075 183.776 313.075 183.776 313.075V312.932H360.523V311.121C360.525 309.478 360.194 307.852 359.55 306.34L359.795 306.043C360.741 307.291 361.37 308.748 361.629 310.292C361.609 310.442 361.58 310.591 361.544 310.738L361.65 310.467C361.692 310.95 361.656 311.436 361.544 311.907C361.544 311.907 384.22 253.541 383.975 218.688C384.04 215.018 383.763 211.349 383.146 207.731ZM241.802 145.721C241.509 144.056 241.321 142.374 241.239 140.686C241.239 140.686 241.239 140.654 241.239 140.638C241.435 142.279 241.627 143.979 241.802 145.721ZM173.1 271.089V285L164.381 286.864L173.1 271.089Z" fill="url(#paint0_linear)"/>
<path d="M267.806 30.5772C278.462 30.5772 288.681 34.806 296.216 42.3332C303.751 49.8605 307.984 60.0696 307.984 70.7148V87.8384H227.628V70.7148C227.628 60.0696 231.861 49.8605 239.396 42.3332C246.931 34.806 257.15 30.5772 267.806 30.5772Z" fill="#A8A8B3"/>
<path d="M268.088 124.89C293.381 124.89 313.886 110.815 313.886 93.4525C313.886 76.0899 293.381 62.0148 268.088 62.0148C242.794 62.0148 222.29 76.0899 222.29 93.4525C222.29 110.815 242.794 124.89 268.088 124.89Z" fill="#A8A8B3"/>
<path d="M238.729 123.908C238.729 123.908 248.299 173.871 238.729 187.346C229.159 200.821 267.971 206.153 267.971 206.153L308.144 191.558L313.763 155.627C313.763 155.627 289.307 141.87 294.373 114.082L238.729 123.908Z" fill="#E1E1E6"/>
<path d="M357.301 292.329C357.301 292.329 359.832 303.276 346.062 305.241C337.931 306.436 329.663 306.337 321.563 304.949L318.527 277.452H350.56L357.301 292.329Z" fill="#F7C4A7"/>
<path d="M114.149 278.318C114.149 278.318 108.067 303.01 121.837 305.241C135.607 307.472 186.168 307.488 186.168 307.488V278.275L163.275 283.162L141.785 262.575L114.149 278.318Z" fill="#E1E1E6"/>
<path opacity="0.1" d="M241.685 140.049L187.875 151.415C187.875 151.415 167.363 152.259 154.157 179.485C140.95 206.711 112.288 284.468 112.288 284.468C112.288 284.468 136.745 259.765 165.396 286.152L184.504 251.629L180.288 306.367H328.347V280.538C328.347 280.538 359.253 297.099 357.009 306.362C357.009 306.362 383.459 238.281 377.744 207.343C376.024 197.778 374.968 188.106 374.586 178.396C374.248 170.399 371.441 162.702 366.55 156.362C361.659 150.022 354.924 145.349 347.269 142.986C344.483 142.131 341.421 141.329 338.018 140.612C306.267 133.877 298.143 140.612 298.143 140.612C298.143 140.612 291.991 160.603 292.103 169.664C292.241 181.312 275.526 189.035 275.526 189.035C275.526 189.035 250.798 183.139 249.676 178.37C248.554 173.6 239.707 145.663 241.685 140.049Z" fill="black"/>
<path d="M241.685 138.928L187.875 150.294C187.875 150.294 167.363 151.139 154.157 178.364C140.95 205.59 112.283 283.358 112.283 283.358C112.283 283.358 136.739 258.655 165.391 285.042L184.499 250.518L180.283 305.241H328.347V279.417C328.347 279.417 359.253 295.978 357.009 305.241C357.009 305.241 383.459 237.161 377.744 206.222C376.024 196.658 374.968 186.986 374.586 177.276C374.248 169.278 371.442 161.581 366.551 155.241C361.66 148.901 354.924 144.229 347.269 141.865C344.483 141.01 341.421 140.208 338.018 139.491C306.267 132.756 298.143 139.491 298.143 139.491C298.143 139.491 291.991 159.483 292.103 168.544C292.241 180.191 275.526 187.914 275.526 187.914C275.526 187.914 250.798 182.019 249.676 177.249C248.554 172.479 239.707 144.542 241.685 138.928Z" fill="#EBA417"/>
<path opacity="0.1" d="M296.67 136.543C294.41 130.15 293.903 123.27 295.203 116.615L239.558 126.436C239.558 126.436 240.361 130.637 241.27 136.931C244.866 140.658 249.182 143.615 253.958 145.623C258.733 147.632 263.867 148.648 269.048 148.612C274.229 148.576 279.349 147.487 284.096 145.412C288.842 143.338 293.117 140.32 296.66 136.543H296.67Z" fill="black"/>
<path d="M306.16 107.91C306.117 117.926 302.134 127.524 295.072 134.635C288.01 141.745 278.433 145.797 268.407 145.919C258.381 146.04 248.709 142.22 241.477 135.283C234.244 128.345 230.03 118.846 229.744 108.834C229.744 108.526 229.744 108.218 229.744 107.91C229.742 100.762 231.749 93.7569 235.536 87.692C239.323 81.6272 244.738 76.7461 251.165 73.6041C252.31 73.0447 253.486 72.5418 254.695 72.0957C260.981 69.7871 267.762 69.1573 274.367 70.2686C282.831 71.7085 290.563 75.9565 296.314 82.3265C302.064 88.6966 305.497 96.8169 306.059 105.376C306.127 106.216 306.16 107.06 306.16 107.91Z" fill="#E1E1E6"/>
<g opacity="0.1">
<path opacity="0.1" d="M254.637 72.9933L254.69 72.9614C253.481 73.4076 252.304 73.9104 251.159 74.4699C244.733 77.6118 239.318 82.493 235.531 88.5578C231.744 94.6226 229.737 101.628 229.739 108.776C229.739 109.084 229.739 109.392 229.739 109.7C230.927 109.668 232.095 109.387 233.168 108.877C242.483 104.532 248.055 91.243 250.266 81.9747C251.064 78.6552 251.813 74.916 254.637 72.9933Z" fill="black"/>
<path opacity="0.1" d="M283.884 74.0609C280.859 72.6728 277.665 71.6888 274.383 71.1344C277.074 71.7531 279.478 73.2615 281.204 75.4153C282.05 76.5646 282.752 77.8132 283.293 79.1332C278.208 76.9118 272.7 75.8207 267.151 75.9354C261.601 76.05 256.143 77.3676 251.154 79.7971C253.552 85.05 260.99 87.9128 265.956 89.8302C271.393 91.9264 276.887 93.8437 282.437 95.5823L277.525 91.5988L288.621 93.3622C288.74 91.1561 288.478 88.9461 287.844 86.8293C289.971 88.5395 292.789 89.1131 295.096 90.5472C299.419 93.2719 301.221 98.5141 303.576 103.055C304.199 104.256 304.932 105.483 306.054 106.242C305.601 99.3811 303.301 92.7696 299.399 87.1055C295.497 81.4413 290.137 76.9346 283.884 74.0609Z" fill="black"/>
</g>
<path d="M254.637 72.1276L254.69 72.0957C253.481 72.5419 252.304 73.0447 251.159 73.6041C244.733 76.7461 239.318 81.6272 235.531 87.6921C231.744 93.7569 229.737 100.762 229.739 107.91C229.739 108.218 229.739 108.526 229.739 108.834C230.927 108.802 232.095 108.522 233.168 108.011C242.483 103.666 248.055 90.3772 250.266 81.109C251.064 77.8107 251.813 74.0556 254.637 72.1276Z" fill="#263238"/>
<path d="M283.884 73.2005C280.859 71.8124 277.665 70.8284 274.383 70.2739C277.074 70.8926 279.478 72.4011 281.204 74.5548C282.05 75.7042 282.752 76.9528 283.293 78.2728C278.208 76.0514 272.7 74.9603 267.151 75.0749C261.601 75.1896 256.143 76.5072 251.154 78.9367C253.552 84.1896 260.99 87.0523 265.956 88.9697C271.393 91.0659 276.887 92.9833 282.437 94.7219L277.525 90.7384L288.621 92.5018C288.74 90.2957 288.478 88.0857 287.844 85.9688C289.971 87.6791 292.789 88.2527 295.096 89.6868C299.419 92.4115 301.221 97.6537 303.576 102.195C304.199 103.395 304.932 104.622 306.054 105.382C305.6 98.5207 303.301 91.9092 299.399 86.2451C295.497 80.5809 290.136 76.0742 283.884 73.2005Z" fill="#263238"/>
<path opacity="0.1" d="M225.379 101.616C225.379 101.616 264.722 52.7519 310.238 101.616L306.304 90.6693C306.304 90.6693 284.947 59.5132 269.778 66.2373C254.61 72.9614 239.713 77.7469 239.713 77.7469L225.379 101.616Z" fill="black"/>
<path d="M225.379 100.75C225.379 100.75 264.722 51.8862 310.238 100.75L306.304 89.8036C306.304 89.8036 284.947 58.6475 269.778 65.3716C254.61 72.0957 239.713 76.8812 239.713 76.8812L225.379 100.75Z" fill="#A8A8B3"/>
<path opacity="0.1" d="M193.064 206.015C193.064 206.015 184.637 228.471 196.435 248.681C208.233 268.89 186.041 277.314 186.041 277.314" fill="black"/>
<path opacity="0.1" d="M329.623 185.806C329.623 185.806 344.233 204.331 334.679 220.892C325.125 237.453 325.689 277.314 325.689 277.314" fill="black"/>
<path d="M180.139 293.875H342.548C346.125 293.875 349.556 295.294 352.085 297.821C354.615 300.348 356.036 303.776 356.036 307.349H166.656C166.656 303.777 168.077 300.35 170.605 297.823C173.134 295.296 176.563 293.876 180.139 293.875Z" fill="#263238"/>
<path d="M196.664 201.24H326.029C328.752 201.24 331.448 201.776 333.964 202.817C336.479 203.858 338.765 205.384 340.691 207.307C342.616 209.231 344.143 211.514 345.185 214.027C346.227 216.54 346.764 219.234 346.764 221.954V296.961H175.929V221.954C175.929 216.461 178.113 211.192 182.002 207.307C185.89 203.423 191.164 201.24 196.664 201.24Z" fill="#263238"/>
<path d="M261.203 263.42C266.79 263.42 271.32 258.894 271.32 253.312C271.32 247.73 266.79 243.205 261.203 243.205C255.615 243.205 251.085 247.73 251.085 253.312C251.085 258.894 255.615 263.42 261.203 263.42Z" fill="#E1E1E6"/>
<path opacity="0.1" d="M227.628 78.7136C227.628 78.7136 266.291 40.111 307.989 78.0072" stroke="black" stroke-miterlimit="10"/>
<path d="M317.756 76.2545H313.875V98.238H317.756V76.2545Z" fill="#263238"/>
<path d="M308.696 90.4781C312.244 90.4781 315.647 91.8861 318.155 94.3922C320.664 96.8982 322.073 100.297 322.073 103.841V104.702C322.073 108.246 320.664 111.645 318.155 114.151C315.647 116.657 312.244 118.065 308.696 118.065V90.4781Z" fill="#61DCFB"/>
<path d="M312.147 92.2043C312.147 90.5382 310.795 89.1875 309.127 89.1875C307.459 89.1875 306.107 90.5382 306.107 92.2043V116.344C306.107 118.01 307.459 119.361 309.127 119.361C310.795 119.361 312.147 118.01 312.147 116.344V92.2043Z" fill="#263238"/>
<path d="M217.462 98.6682H221.344V76.6847H217.462V98.6682Z" fill="#263238"/>
<path d="M226.522 118.495C222.974 118.495 219.572 117.087 217.063 114.581C214.555 112.075 213.145 108.676 213.145 105.132V104.272C213.145 102.517 213.491 100.779 214.164 99.1577C214.836 97.5364 215.821 96.0633 217.063 94.8224C218.305 93.5815 219.78 92.5971 221.403 91.9256C223.026 91.254 224.765 90.9084 226.522 90.9084V118.495Z" fill="#61DCFB"/>
<path d="M223.071 116.769C223.071 118.435 224.424 119.786 226.091 119.786C227.759 119.786 229.111 118.435 229.111 116.769V92.6292C229.111 90.9631 227.759 89.6124 226.091 89.6124C224.424 89.6124 223.071 90.9631 223.071 92.6292V116.769Z" fill="#263238"/>
<path d="M313.418 52.7572C308.159 41.8372 296.707 28.6333 272.022 27.5763V27.5444H271.724L262.978 27.9587V28.0012C238.458 29.1272 227.059 42.2833 221.817 53.1662C218.325 60.5438 216.472 68.5883 216.383 76.7484L219.403 76.6741L222.423 76.605C222.553 69.3401 224.226 62.1857 227.33 55.6147C233.987 41.954 246.236 34.6935 263.733 34.0189L271.469 33.5887C288.977 34.2579 301.232 41.5291 307.883 55.1845C310.992 61.7579 312.669 68.9162 312.801 76.1854L315.821 76.2545L318.841 76.3288C318.754 68.1731 316.904 60.1324 313.418 52.7572Z" fill="#61DCFB"/>
<path d="M451.38 307.525H39.4922V418H451.38V307.525Z" fill="#E1E1E6"/>
<path opacity="0.1" d="M451.38 314.961H39.4922V329.301H451.38V314.961Z" fill="black"/>
<path d="M479 305.931H11.8615V320.272H479V305.931Z" fill="#D6D6E3"/>
</g>
<defs>
<linearGradient id="paint0_linear" x1="245.433" y1="313.102" x2="245.433" y2="24.9632" gradientUnits="userSpaceOnUse">
<stop stop-color="#808080" stop-opacity="0.25"/>
<stop offset="0.54" stop-color="#808080" stop-opacity="0.12"/>
<stop offset="1" stop-color="#808080" stop-opacity="0.1"/>
</linearGradient>
<clipPath id="clip0">
<rect width="479" height="418" fill="white"/>
</clipPath>
</defs>
</svg>
